#tb 0: 1/44100
#media_type 0: audio
#codec_id 0: pcm_s16le
#sample_rate 0: 44100
#channel_layout_name 0: 2 channels
0,          0,          0,     4096,    16384, 0xdefbb698
0,       4096,       4096,     4096,    16384, 0xeadbf4b2
0,       8192,       8192,     4096,    16384, 0x4727b94d
0,      12288,      12288,     4096,    16384, 0x1647d0a1
0,      16384,      16384,     4096,    16384, 0x2dfdca0c
0,      20480,      20480,     4096,    16384, 0x71a7070f
0,      24576,      24576,     4096,    16384, 0x7a4ed841
0,      28672,      28672,     4096,    16384, 0xa5a0dce9
0,      32768,      32768,     4096,    16384, 0xfa72bbc8
0,      36864,      36864,     4096,    16384, 0xf3d5f0e1
0,      40960,      40960,     4096,    16384, 0x7ef8f45c
0,      45056,      45056,     4096,    16384, 0x0138c310
0,      49152,      49152,     4096,    16384, 0x07b5f81c
0,      53248,      53248,     4096,    16384, 0x3d8be889
0,      57344,      57344,     4096,    16384, 0xa13cd269
0,      61440,      61440,     4096,    16384, 0xa40f002a
0,      65536,      65536,     4096,    16384, 0xddc1caad
0,      69632,      69632,     4096,    16384, 0x925de035
0,      73728,      73728,     4096,    16384, 0x7ef8f45c
0,      77824,      77824,     4096,    16384, 0x0138c310
